<?xml version="1.0" encoding="utf-8"?>
<!-- Generator: Adobe Illustrator 27.0.0, SVG Export Plug-In . SVG Version: 6.00 Build 0)  -->
<svg version="1.1" id="Layer_1" xmlns="http://www.w3.org/2000/svg" xmlns:xlink="http://www.w3.org/1999/xlink" x="0px" y="0px"
	 width="600px" height="600px" viewBox="0 0 600 600" style="enable-background:new 0 0 600 600;" xml:space="preserve">
<style type="text/css">
	.st0{fill:#E6E6E6;}
	.st1{fill:#CCCCCC;}
</style>
<g>
	<rect class="st0" width="600" height="600"/>
</g>
<g>
	<path class="st1" d="M442,215.81c0-12.75-10.38-23.12-23.12-23.12H181.12c-12.75,0-23.12,10.38-23.12,23.12v168.38
		c0,12.75,10.38,23.12,23.12,23.12h237.75c12.75,0,23.12-10.38,23.12-23.12V215.81z M181.36,203.36h237.87
		c6.88,0,12.69,5.57,12.69,12.39v145.2l-65.57-46.13c-9.43-6.64-22.12-5.45-30.06,2.91l-23.42,24.37l-54.13-33.62
		c-8.3-5.16-19.09-4.51-26.68,1.54l-63.38,50.22V215.75C168.67,208.93,174.48,203.36,181.36,203.36z M168.67,384.25v-10.32
		l69.96-55.55c4.09-3.26,9.9-3.62,14.35-0.83l52.23,32.37l-44.82,46.72h-79.03C174.48,396.64,168.67,391.07,168.67,384.25z
		 M419.23,396.64H275.22l68.72-71.56c4.27-4.45,11.21-5.1,16.3-1.54l71.74,50.52v10.2C431.92,391.07,426.11,396.64,419.23,396.64z"
		/>
	<path class="st1" d="M316.25,297.75c19.45,0,35.34-15.83,35.34-35.34s-15.83-35.34-35.34-35.34s-35.34,15.83-35.34,35.34
		S296.74,297.75,316.25,297.75z M316.25,237.8c13.58,0,24.66,11.03,24.66,24.66c0,13.58-11.03,24.66-24.66,24.66
		c-13.58,0-24.66-11.03-24.66-24.66C291.58,248.89,302.67,237.8,316.25,237.8z"/>
</g>
</svg>
